<svg xmlns="http://www.w3.org/2000/svg" xmlns:xlink="http://www.w3.org/1999/xlink" viewBox="0 0 320.39 349.73"><defs><linearGradient id="b" x1="216.57" y1="304.04" x2="298.84" y2="304.04" gradientUnits="userSpaceOnUse"><stop offset="0" stop-color="#8a51a0"/><stop offset=".25" stop-color="#cba4cc"/><stop offset=".53" stop-color="#ebe7f3"/><stop offset=".8" stop-color="#cba4cc"/><stop offset="1" stop-color="#8a51a0"/></linearGradient><linearGradient id="e" x1="223.62" y1="262.92" x2="320.39" y2="262.92" xlink:href="#b"/><linearGradient id="f" x1="21.56" y1="304.04" x2="103.82" y2="304.04" xlink:href="#b"/><linearGradient id="g" x1="0" y1="262.92" x2="96.77" y2="262.92" xlink:href="#b"/><linearGradient id="h" x1="216.57" y1="289.11" x2="261.97" y2="289.11" gradientUnits="userSpaceOnUse"><stop offset="0" stop-color="#8a51a0"/><stop offset="1" stop-color="#cba4cc"/></linearGradient><linearGradient id="i" x1="58.42" y1="289.11" x2="103.82" y2="289.11" gradientUnits="userSpaceOnUse"><stop offset="0" stop-color="#cba4cc"/><stop offset="1" stop-color="#8a51a0"/></linearGradient><linearGradient id="k" x1="18.45" y1="174.86" x2="301.95" y2="174.86" gradientUnits="userSpaceOnUse"><stop offset="0" stop-color="#8a51a0"/><stop offset=".33" stop-color="#cba4cc"/><stop offset=".67" stop-color="#cba4cc"/><stop offset="1" stop-color="#8a51a0"/></linearGradient><linearGradient id="c" x1="44.21" y1="242.28" x2="276.18" y2="242.28" gradientUnits="userSpaceOnUse"><stop offset="0" stop-color="#8a51a0"/><stop offset=".25" stop-color="#cba4cc"/><stop offset=".8" stop-color="#cba4cc"/><stop offset="1" stop-color="#8a51a0"/></linearGradient><linearGradient id="m" x1="56.27" y1="283.96" x2="264.13" y2="283.96" xlink:href="#c"/><radialGradient id="a" cx="268.48" cy="283.21" r="44.85" gradientUnits="userSpaceOnUse"><stop offset="0" stop-color="#414042"/><stop offset="1" stop-color="#231f20"/></radialGradient><radialGradient id="d" cx="51.91" cy="283.21" r="44.85" xlink:href="#a"/><radialGradient id="j" cx="160.2" cy="174.87" r="153.1" gradientUnits="userSpaceOnUse"><stop offset="0" stop-color="#ebe7f3"/><stop offset=".15" stop-color="#ede2eb"/><stop offset=".67" stop-color="#f3d3d4"/><stop offset=".99" stop-color="#f5cecc"/></radialGradient><radialGradient id="l" cx="160.2" cy="262.62" r="85.02" xlink:href="#a"/></defs><g data-name="Layer 2"><g data-name="Layer 1"><path d="M224.54 246.76c38.42 6.5 60.64 12.28 95.85 29.95l-32.21 11.18 10.66 31.77c-30.91-15.51-48.54-19.79-82.27-25.5z" fill="url(#a)"/><path d="M95.85 246.76C57.43 253.26 35.22 259 0 276.71l32.22 11.18-10.66 31.77c30.9-15.51 48.54-19.79 82.26-25.5z" fill="url(#d)"/><path d="M216.57 294.16c33.73 5.71 51.36 10 82.27 25.5l-2.59-7.7c-27.4-12.75-47.94-18.13-78.71-23.54z" fill="url(#b)"/><path d="M320.39 276.71c-34.14-16.94-58.11-23.56-95.85-29.95l-.92 5.48c35.85 6.18 58.18 11.73 89.94 26.84z" fill="url(#e)"/><path d="M103.82 294.16c-33.72 5.71-51.36 10-82.26 25.5l2.58-7.7c27.4-12.75 47.94-18.13 78.71-23.54z" fill="url(#f)"/><path d="M0 276.71c34.14-16.94 58.12-23.56 95.85-29.95l.92 5.48C60.92 258.42 38.59 264 6.84 279.08z" fill="url(#g)"/><path d="M218.3 283.91l-1.73 10.25 45.4.15s-13.37-4.15-22.7-6.15c-5.48-1.16-20.97-4.25-20.97-4.25z" fill="url(#h)"/><path d="M102.1 283.91l1.72 10.25-45.4.15s13.38-4.15 22.7-6.15c5.49-1.16 20.98-4.25 20.98-4.25z" fill="url(#i)"/><path d="M25.16 203.13a17.79 17.79 0 005.22 12.62l117.19 123.13a17.86 17.86 0 0025.25 0L290 215.75a17.8 17.8 0 005.23-12.62V23.47a17.86 17.86 0 00-17.85-17.85H43a17.85 17.85 0 00-17.84 17.85v179.66z" fill="url(#j)"/><path d="M278.88 0H41.52a23.1 23.1 0 00-23.07 23.07V202a22.94 22.94 0 006.75 16.31L143.88 343a23.07 23.07 0 0032.63 0l118.68-124.65A23 23 0 00302 202V23a23.1 23.1 0 00-23.12-23zM160.2 339.71a13 13 0 01-9.24-3.82L32.28 211.27a13 13 0 01-3.82-9.27V23a13.07 13.07 0 0113.06-13h237.36a13.07 13.07 0 0113.05 13.06V202a13 13 0 01-3.82 9.23L169.43 335.89a13 13 0 01-9.23 3.82z" fill="url(#k)"/><path d="M44.21 248.37a394.45 394.45 0 01232 0l-14.13 45.94a346.36 346.36 0 00-203.71 0z" fill="url(#l)"/><path d="M274.56 253.63l1.62-5.26a394.45 394.45 0 00-232 0l1.62 5.26a391.32 391.32 0 01228.76 0z" fill="url(#c)"/><path d="M56.27 287.56l2.07 6.75a346.36 346.36 0 01203.71 0c.62-2 1.46-4.86 2.08-6.88a396 396 0 00-207.86.13z" fill="url(#m)"/></g></g></svg>